<?xml version="1.0" encoding="UTF-8" standalone="no"?>
<!DOCTYPE svg PUBLIC "-//W3C//DTD SVG 1.1//EN" "http://www.w3.org/Graphics/SVG/1.1/DTD/svg11.dtd">
<svg version="1.1" xmlns="http://www.w3.org/2000/svg" xmlns:xlink="http://www.w3.org/1999/xlink" preserveAspectRatio="xMidYMid meet" viewBox="-1.0000000000000142 -1.0000000000000018 44.000000000000014 39.00000000000001" width="40" height="35"><defs><path d="M20 9.46C20 14.68 15.52 18.92 10 18.92C4.48 18.92 0 14.68 0 9.46C0 4.24 4.48 0 10 0C15.52 0 20 4.24 20 9.46Z" id="anadkaNk3"></path><path d="M40 9.46C40 14.68 35.52 18.92 30 18.92C24.48 18.92 20 14.68 20 9.46C20 4.24 24.48 0 30 0C35.52 0 40 4.24 40 9.46Z" id="c4fiKetdZ4"></path><path d="M30 25.54C30 30.76 25.52 35 20 35C14.48 35 10 30.76 10 25.54C10 20.32 14.48 16.08 20 16.08C25.52 16.08 30 20.32 30 25.54Z" id="a4nN0AMjmX"></path></defs><g><g><use xlink:href="#anadkaNk3" opacity="1" fill="#dfe3d8" fill-opacity="1"></use></g><g><use xlink:href="#c4fiKetdZ4" opacity="1" fill="#dfe3d8" fill-opacity="1"></use></g><g><use xlink:href="#a4nN0AMjmX" opacity="1" fill="#dfe3d8" fill-opacity="1"></use></g></g></svg>